<svg xmlns="http://www.w3.org/2000/svg" xml:space="preserve" viewBox="0 0 208 42"><path fill="#FFF" d="M43.83 9.737h28.803V1H44.607c-2.78 0-5.446 1.121-7.412 3.116L.846 41h12.177L43.83 9.737z"/><path fill="#FFF" d="M51.484 26.239h21.149v-8.737H52.26a10.41 10.41 0 0 0-7.412 3.116L24.762 41h12.176l14.546-14.761zM171.15 34.73v4.877c0 .769.599 1.392 1.336 1.392h6.304c.572 0 1.036-.484 1.036-1.08v-3.072h-4.02v1.492h2.422v1.041h-5.432v-4.168h7.031v-1.553h-7.603c-.592 0-1.074.48-1.074 1.07M82.092 1.042c-1.576 0-2.855 1.296-2.855 2.896v22.093h5.321v-9.39h15.426l3.158-5.4H84.558v-4.8h21.392l3.158-5.4H82.092zm33.655 14.953 5.824-10.507 5.825 10.507h-11.649zm17.229 10.069h6.292L126.242 3.689A5.405 5.405 0 0 0 121.57 1a5.406 5.406 0 0 0-4.67 2.69l-13.027 22.374h6.293l3.047-5.497h16.715l3.047 5.497zm74.178-19.622v-5.4h-24.558c-1.577 0-2.856 1.296-2.856 2.897v12.158l5.89 9.934h21.524v-5.4h-22.092V6.44h22.092zm-98.513 28.842V33.71h-7.166a.839.839 0 0 0-.832.845v5.6a.84.84 0 0 0 .832.846h7.166v-1.576h-6.446v-4.14h6.446zm44.237-19.289 5.824-10.507 5.825 10.507h-11.649zm17.229 10.069h6.292L163.373 3.689A5.405 5.405 0 0 0 158.702 1a5.406 5.406 0 0 0-4.67 2.69l-13.027 22.374h6.293l3.047-5.497h16.715l3.047 5.497zM84.63 34.971V41h-1.703v-6.03h-3.359v-1.31h8.435v1.312zM90.088 41v-7.34h7.494v1.249h-5.79v1.64h3.38v1.249h-3.38v1.82h5.858V41zm22.065 0v-7.34h1.703v2.847h5.32V33.66h1.716V41h-1.717v-3.16h-5.319V41zm12.465 0v-7.34h1.163l5.152 4.326c.177.143.33.279.465.407.134.126.256.257.367.391a67.562 67.562 0 0 1-.055-.875 7.794 7.794 0 0 1-.014-.395V33.66h1.53V41h-1.163l-5.375-4.535a13.9 13.9 0 0 1-.339-.313 3.833 3.833 0 0 1-.27-.285c.023.228.04.441.052.643.012.2.018.376.018.524V41h-1.531zm13.892-1.382h5.617v-4.646h-5.617v4.646zm-1.703-4.223c0-.667.125-1.122.374-1.368.249-.245.73-.368 1.44-.368h5.388c.711 0 1.191.123 1.44.368.25.246.374.701.374 1.368v3.868c0 .672-.124 1.13-.374 1.372-.249.243-.729.365-1.44.365h-5.388c-.71 0-1.191-.122-1.44-.365-.25-.242-.374-.7-.374-1.371v-3.869zM149.411 41v-7.34h1.704v5.958h5.492V41zm10.99-1.382h5.617v-4.646h-5.617v4.646zm-1.703-4.223c0-.667.125-1.122.374-1.368.249-.245.73-.368 1.44-.368h5.388c.711 0 1.191.123 1.44.368.25.246.374.701.374 1.368v3.868c0 .672-.124 1.13-.374 1.372-.249.243-.729.365-1.44.365h-5.388c-.71 0-1.191-.122-1.44-.365-.25-.242-.374-.7-.374-1.371v-3.869zm24.731-1.736h1.703v7.34h-1.703zM188.872 41v-7.34h7.493v1.249h-5.79v1.64h3.38v1.249h-3.38v1.82h5.86V41zm17.731-4.112c-.253-.245-.736-.367-1.452-.367h-4.563v-1.578h6.358l.016-1.284h-6.048c-.712 0-1.192.123-1.441.368-.25.246-.374.702-.374 1.368v.812c0 .668.125 1.124.374 1.369.25.246.73.367 1.44.367h4.564v1.675h-6.305V41h5.979c.716 0 1.2-.123 1.452-.368.252-.246.377-.701.377-1.368v-1.007c0-.667-.125-1.123-.377-1.369"/></svg>