<?xml version="1.0" encoding="utf-8"?>
<!-- Generator: Adobe Illustrator 28.0.0, SVG Export Plug-In . SVG Version: 6.00 Build 0)  -->
<svg version="1.1" id="Layer_1" xmlns="http://www.w3.org/2000/svg" xmlns:xlink="http://www.w3.org/1999/xlink" x="0px" y="0px"
	 viewBox="0 0 148.5 148.5" style="enable-background:new 0 0 148.5 148.5;" xml:space="preserve">
<style type="text/css">
	.st0{fill:#5F696E;}
</style>
<g>
	<rect x="52.5" y="21.3" class="st0" width="42.8" height="14.1"/>
	<path class="st0" d="M87.6,81.8H61.4c0-18.1,4-20.8,13.8-20.8c8.5,0,12.5,2.4,12.5,16.1C87.7,78.6,87.7,80.4,87.6,81.8 M75.1,44.8
		C49.2,44.8,41,57.8,41,86.9c0,30.4,9.4,42.1,33.9,42.1c17.2,0,30.3-3,30.3-3l-0.3-16c0,0-11.9,1.7-26.5,1.7
		c-12,0-16.3-4.1-16.4-17.5h44.1c0,0,0.8-5.9,0.8-13.5C106.9,57.3,100,44.8,75.1,44.8"/>
</g>
</svg>
