<?xml version="1.0" encoding="utf-8"?>
<!-- Generator: Adobe Illustrator 28.0.0, SVG Export Plug-In . SVG Version: 6.00 Build 0)  -->
<svg version="1.1" id="Layer_1" xmlns="http://www.w3.org/2000/svg" xmlns:xlink="http://www.w3.org/1999/xlink" x="0px" y="0px"
	 viewBox="0 0 148.52 148.52" style="enable-background:new 0 0 148.52 148.52;" xml:space="preserve">
<style type="text/css">
	.st0{fill:#01577D;}
</style>
<g>
	<rect x="52.51" y="21.26" class="st0" width="42.78" height="14.15"/>
	<path class="st0" d="M87.57,81.78H61.41c0-18.1,3.95-20.83,13.84-20.83c8.52,0,12.47,2.43,12.47,16.12
		C87.72,78.59,87.72,80.42,87.57,81.78 M75.1,44.83c-25.85,0-34.06,12.92-34.06,42.12c0,30.41,9.43,42.12,33.91,42.12
		c17.19,0,30.26-3.04,30.26-3.04l-0.3-15.97c0,0-11.86,1.67-26.46,1.67c-12.01,0-16.27-4.11-16.42-17.49h44.1
		c0,0,0.76-5.93,0.76-13.53C106.88,57.3,100.04,44.83,75.1,44.83"/>
</g>
</svg>
